<svg width="370" height="370" viewBox="0 0 370 370" fill="none" xmlns="http://www.w3.org/2000/svg">
<path d="M160.858 0.5H10C4.47715 0.5 0 4.97716 0 10.5V360C0 365.523 4.47715 370 10 370H160.358C169.267 370 173.729 359.229 167.429 352.929L7.07107 192.571C3.16582 188.666 3.16583 182.334 7.07107 178.429L167.929 17.5711C174.229 11.2714 169.767 0.5 160.858 0.5Z" fill="white"/>
<path d="M309.142 0H360C365.523 0 370 4.47715 370 9.99999V360C370 365.523 365.523 370 360 370H309.142C306.49 370 303.946 368.946 302.071 367.071L127.071 192.071C123.166 188.166 123.166 181.834 127.071 177.929L302.071 2.92893C303.946 1.05357 306.49 0 309.142 0Z" fill="white"/>
</svg>
