<svg
                      width="20"
                      height="20"
                      viewBox="0 0 40 40"
                      fill="white"
                      xmlns="http://www.w3.org/2000/svg"
                    >
                      <path d="M36.8032 23.4702C35.7938 26.7655 33.7707 29.6584 31.0219 31.7374C28.6086 33.5537 25.7368 34.6615 22.7289 34.9364C19.7209 35.2113 16.6959 34.6423 13.9933 33.2935C11.2908 31.9446 9.01762 29.8692 7.42904 27.3003C5.84047 24.7313 4.99934 21.7704 5.00007 18.7499C4.98933 15.2244 6.13543 11.7927 8.26257 8.98113C10.3415 6.23237 13.2345 4.20933 16.5298 3.19988C16.7469 3.13301 16.9783 3.1266 17.1988 3.18136C17.4194 3.23612 17.6208 3.34996 17.7815 3.51065C17.9422 3.67134 18.056 3.87279 18.1108 4.09334C18.1655 4.31389 18.1591 4.5452 18.0923 4.76238C17.3717 7.14587 17.3113 9.68019 17.9175 12.0953C18.5236 14.5104 19.7737 16.7158 21.5344 18.4765C23.2951 20.2372 25.5005 21.4873 27.9156 22.0934C30.3307 22.6996 32.865 22.6392 35.2485 21.9186C35.4657 21.8518 35.697 21.8454 35.9176 21.9001C36.1381 21.9549 36.3396 22.0687 36.5002 22.2294C36.6609 22.3901 36.7748 22.5915 36.8295 22.8121C36.8843 23.0326 36.8779 23.2639 36.811 23.4811L36.8032 23.4702Z" />
                    </svg>